<?xml version="1.0" encoding="UTF-8" standalone="no"?>
<svg
   xmlns:dc="http://purl.org/dc/elements/1.1/"
   xmlns:cc="http://creativecommons.org/ns#"
   xmlns:rdf="http://www.w3.org/1999/02/22-rdf-syntax-ns#"
   xmlns:svg="http://www.w3.org/2000/svg"
   xmlns="http://www.w3.org/2000/svg"
   width="58.475182mm"
   height="8.3420601mm"
   viewBox="0 0 58.475182 8.3420601"
   version="1.1"
   id="svg1191">
  <defs
     id="defs1185" />
  <metadata
     id="metadata1188">
    <rdf:RDF>
      <cc:Work
         rdf:about="">
        <dc:format>image/svg+xml</dc:format>
        <dc:type
           rdf:resource="http://purl.org/dc/dcmitype/StillImage" />
        <dc:title></dc:title>
      </cc:Work>
    </rdf:RDF>
  </metadata>
  <path
     d="m 1.98462,2.27528 q -0.5883,0 -1.00294,0.41464 -0.41464,0.41464 -0.41464,1.00294 0,0.58829 0.41464,1.00294 0.41464,0.41464 1.00294,0.41464 0.58829,0 1.00293,-0.41464 Q 3.4022,4.28115 3.4022,3.69286 3.4022,3.10456 2.98755,2.68992 2.57291,2.27528 1.98462,2.27528 Z M 3.4022,5.08209 Q 2.80681,5.67747 1.98462,5.67747 1.16242,5.67747 0.58121,5.09626 0,4.51506 0,3.69286 0,2.87066 0.58121,2.28945 q 0.58121,-0.5812 1.40341,-0.5812 0.82219,0 1.4034,0.5812 0.58121,0.58121 0.58121,1.40341 l 0,1.70109 q 0,0.11696 -0.0851,0.20201 -0.0815,0.0815 -0.19846,0.0815 -0.11695,0 -0.202,-0.0815 -0.0815,-0.085 -0.0815,-0.20201 z"
     style="font-style:normal;font-variant:normal;font-weight:normal;font-stretch:normal;font-size:medium;line-height:1.25;font-family:Comfortaa;-inkscape-font-specification:Comfortaa;letter-spacing:0px;word-spacing:0px;fill:#ff8282;fill-opacity:1;stroke:none;stroke-width:1.64464307"
     id="path1868" />
  <path
     d="m 8.22197,5.39395 q 0,0.11696 -0.0851,0.20201 -0.0815,0.0815 -0.19846,0.0815 -0.11695,0 -0.202,-0.0815 -0.0815,-0.085 -0.0815,-0.20201 l 0,-0.23035 Q 7.12331,5.67747 6.37908,5.67747 5.61713,5.67747 5.07491,5.13879 4.53623,4.59657 4.53623,3.83462 l 0,-1.84286 q 0,-0.11695 0.0815,-0.19846 0.0851,-0.0851 0.20201,-0.0851 0.11695,0 0.19846,0.0851 0.0851,0.0815 0.0851,0.19846 l 0,1.84286 q 0,0.52805 0.37212,0.9037 0.37566,0.37212 0.9037,0.37212 0.52805,0 0.90017,-0.37212 0.37566,-0.37565 0.37566,-0.9037 l 0,-1.84286 q 0,-0.11695 0.0815,-0.19846 0.0851,-0.0851 0.202,-0.0851 0.11695,0 0.19846,0.0851 0.0851,0.0815 0.0851,0.19846 z"
     style="font-style:normal;font-variant:normal;font-weight:normal;font-stretch:normal;font-size:medium;line-height:1.25;font-family:Comfortaa;-inkscape-font-specification:Comfortaa;letter-spacing:0px;word-spacing:0px;fill:#ff8282;fill-opacity:1;stroke:none;stroke-width:1.64464307"
     id="path1870" />
  <path
     d="m 10.77361,5.11044 q 0.11695,0 0.19846,0.085 0.0851,0.0815 0.0851,0.19846 0,0.11696 -0.0851,0.20201 -0.0815,0.0815 -0.19846,0.0815 -1.41758,0 -1.41758,-1.41758 l 0,-1.98461 -0.28351,0 q -0.11695,0 -0.20201,-0.0815 -0.0815,-0.0851 -0.0815,-0.20201 0,-0.11695 0.0815,-0.19846 0.0851,-0.0851 0.20201,-0.0851 l 0.28351,0 0,-1.41758 q 0,-0.11695 0.0815,-0.19846 0.0851,-0.0851 0.20201,-0.0851 0.11695,0 0.19846,0.0851 0.0851,0.0815 0.0851,0.19846 l 0,1.41758 0.57058,0 q 0.11695,0 0.19846,0.0851 0.0851,0.0815 0.0851,0.19846 0,0.11695 -0.0851,0.20201 -0.0815,0.0815 -0.19846,0.0815 l -0.57058,0 0,1.98461 q 0,0.85055 0.85055,0.85055 z"
     style="font-style:normal;font-variant:normal;font-weight:normal;font-stretch:normal;font-size:medium;line-height:1.25;font-family:Comfortaa;-inkscape-font-specification:Comfortaa;letter-spacing:0px;word-spacing:0px;fill:#ff8282;fill-opacity:1;stroke:none;stroke-width:1.64464307"
     id="path1872" />
  <path
     d="m 15.38075,3.69286 q 0,0.8222 -0.58121,1.4034 -0.58121,0.58121 -1.40341,0.58121 -0.82219,0 -1.4034,-0.58121 -0.58121,-0.5812 -0.58121,-1.4034 0,-0.8222 0.58121,-1.40341 0.58121,-0.5812 1.4034,-0.5812 0.8222,0 1.40341,0.5812 0.58121,0.58121 0.58121,1.40341 z M 13.39613,2.27528 q -0.58829,0 -1.00293,0.41464 -0.41465,0.41464 -0.41465,1.00294 0,0.58829 0.41465,1.00294 0.41464,0.41464 1.00293,0.41464 0.5883,0 1.00294,-0.41464 0.41464,-0.41465 0.41464,-1.00294 0,-0.5883 -0.41464,-1.00294 -0.41464,-0.41464 -1.00294,-0.41464 z"
     style="font-style:normal;font-variant:normal;font-weight:normal;font-stretch:normal;font-size:medium;line-height:1.25;font-family:Comfortaa;-inkscape-font-specification:Comfortaa;letter-spacing:0px;word-spacing:0px;fill:#ff8282;fill-opacity:1;stroke:none;stroke-width:1.64464307"
     id="path1874" />
  <path
     d="m 19.34997,3.69286 q 0,-0.5883 -0.41464,-1.00294 -0.41464,-0.41464 -1.00294,-0.41464 -0.58829,0 -1.00294,0.41464 -0.41464,0.41464 -0.41464,1.00294 0,0.58829 0.41464,1.00294 0.41465,0.41464 1.00294,0.41464 0.5883,0 1.00294,-0.41464 0.41464,-0.41465 0.41464,-1.00294 z m 0,-3.40928 q 0,-0.11695 0.0815,-0.19846 0.0851,-0.0851 0.20201,-0.0851 0.11695,0 0.19846,0.0851 0.085,0.0815 0.085,0.19846 l 0,3.40928 q 0,0.8222 -0.5812,1.4034 -0.58121,0.58121 -1.40341,0.58121 -0.8222,0 -1.4034,-0.58121 -0.58121,-0.5812 -0.58121,-1.4034 0,-0.8222 0.58121,-1.40341 0.5812,-0.5812 1.4034,-0.5812 0.8222,0 1.40341,0.5812 0.007,0.007 0.0142,0.0142 z"
     style="font-style:normal;font-variant:normal;font-weight:normal;font-stretch:normal;font-size:medium;line-height:1.25;font-family:Comfortaa;-inkscape-font-specification:Comfortaa;letter-spacing:0px;word-spacing:0px;fill:#ff8282;fill-opacity:1;stroke:none;stroke-width:1.64464307"
     id="path1876" />
  <path
     d="m 21.40546,0.8577 q 0,0.1453 -0.10632,0.25162 -0.10277,0.10277 -0.24807,0.10277 -0.14531,0 -0.25162,-0.10277 Q 20.69667,1.003 20.69667,0.8577 q 0,-0.1453 0.10278,-0.24808 0.10631,-0.10632 0.25162,-0.10632 0.1453,0 0.24807,0.10632 0.10632,0.10278 0.10632,0.24808 z m -0.63791,1.13406 q 0,-0.11695 0.0815,-0.19846 0.0851,-0.0851 0.20201,-0.0851 0.11695,0 0.19846,0.0851 0.0851,0.0815 0.0851,0.19846 l 0,3.40219 q 0,0.11696 -0.0851,0.20201 -0.0815,0.0815 -0.19846,0.0815 -0.11695,0 -0.20201,-0.0815 -0.0815,-0.085 -0.0815,-0.20201 z"
     style="font-style:normal;font-variant:normal;font-weight:normal;font-stretch:normal;font-size:medium;line-height:1.25;font-family:Comfortaa;-inkscape-font-specification:Comfortaa;letter-spacing:0px;word-spacing:0px;fill:#ff8282;fill-opacity:1;stroke:none;stroke-width:1.64464307"
     id="path1878" />
  <path
     d="m 24.45326,0.00715 q 0.11695,0 0.19846,0.0851 0.085,0.0815 0.085,0.19846 0,0.11695 -0.085,0.202 -0.0815,0.0815 -0.19846,0.0815 -1.13407,0 -1.13407,1.13407 l 0,0.21263 0.8541,0 q 0.11695,0 0.19846,0.0851 0.085,0.0815 0.085,0.19846 0,0.11695 -0.085,0.20201 -0.0815,0.0815 -0.19846,0.0815 l -0.8541,0 0,2.90603 q 0,0.11696 -0.085,0.20201 -0.0815,0.0815 -0.19846,0.0815 -0.11695,0 -0.20201,-0.0815 -0.0815,-0.085 -0.0815,-0.20201 l 0,-2.90603 -0.28351,0 q -0.11695,0 -0.20201,-0.0815 -0.0815,-0.0851 -0.0815,-0.20201 0,-0.11695 0.0815,-0.19846 0.0851,-0.0851 0.20201,-0.0851 l 0.28351,0 0,-0.21263 q 0,-1.7011 1.7011,-1.7011 z"
     style="font-style:normal;font-variant:normal;font-weight:normal;font-stretch:normal;font-size:medium;line-height:1.25;font-family:Comfortaa;-inkscape-font-specification:Comfortaa;letter-spacing:0px;word-spacing:0px;fill:#ff8282;fill-opacity:1;stroke:none;stroke-width:1.64464307"
     id="path1880" />
  <path
     d="m 27.28842,0.00715 q 0.11695,0 0.19846,0.0851 0.0851,0.0815 0.0851,0.19846 0,0.11695 -0.0851,0.202 -0.0815,0.0815 -0.19846,0.0815 -1.13407,0 -1.13407,1.13407 l 0,0.21263 0.8541,0 q 0.11695,0 0.19846,0.0851 0.0851,0.0815 0.0851,0.19846 0,0.11695 -0.0851,0.20201 -0.0815,0.0815 -0.19846,0.0815 l -0.8541,0 0,2.90603 q 0,0.11696 -0.0851,0.20201 -0.0815,0.0815 -0.19846,0.0815 -0.11695,0 -0.20201,-0.0815 -0.0815,-0.085 -0.0815,-0.20201 l 0,-2.90603 -0.28351,0 q -0.11695,0 -0.20201,-0.0815 -0.0815,-0.0851 -0.0815,-0.20201 0,-0.11695 0.0815,-0.19846 0.0851,-0.0851 0.20201,-0.0851 l 0.28351,0 0,-0.21263 q 0,-1.7011 1.7011,-1.7011 z"
     style="font-style:normal;font-variant:normal;font-weight:normal;font-stretch:normal;font-size:medium;line-height:1.25;font-family:Comfortaa;-inkscape-font-specification:Comfortaa;letter-spacing:0px;word-spacing:0px;fill:#ff8282;fill-opacity:1;stroke:none;stroke-width:1.64464307"
     id="path1882" />
  <path
     d="m 28.706,5.2522 q 0,0.17719 -0.12404,0.30123 -0.12404,0.12404 -0.30124,0.12404 -0.17719,0 -0.30123,-0.12404 -0.12404,-0.12404 -0.12404,-0.30123 0,-0.1772 0.12404,-0.30124 0.12404,-0.12404 0.30123,-0.12404 0.1772,0 0.30124,0.12404 Q 28.706,5.075 28.706,5.2522 Z"
     style="font-style:normal;font-variant:normal;font-weight:normal;font-stretch:normal;font-size:medium;line-height:1.25;font-family:sans-serif;-inkscape-font-specification:'Courier Prime Sans';letter-spacing:0px;word-spacing:0px;fill:#808080;fill-opacity:1;stroke:none;stroke-width:1.64464307"
     id="path1884" />
  <path
     d="m 31.25764,2.27528 q -0.58829,0 -1.00294,0.41464 -0.41464,0.41464 -0.41464,1.00294 0,0.58829 0.41464,1.00294 0.41465,0.41464 1.00294,0.41464 0.5883,0 1.00294,-0.41464 0.41464,-0.41465 0.41464,-1.00294 0,-0.5883 -0.41464,-1.00294 -0.41464,-0.41464 -1.00294,-0.41464 z m 1.41758,2.80681 q -0.007,0.007 -0.0142,0.0142 -0.58121,0.58121 -1.40341,0.58121 -0.82219,0 -1.4034,-0.58121 -0.58121,-0.5812 -0.58121,-1.4034 0,-0.8222 0.58121,-1.40341 0.58121,-0.5812 1.4034,-0.5812 0.8222,0 1.40341,0.5812 0.5812,0.58121 0.5812,1.40341 l 0,1.98461 q 0,0.62019 -0.44653,1.07736 -0.62374,0.62374 -1.50618,0.62374 -0.88245,0 -1.50264,-0.62374 -0.23035,-0.22681 -0.37566,-0.49261 -0.0425,-0.0638 -0.0425,-0.14884 0,-0.11695 0.0815,-0.20201 0.0851,-0.0815 0.202,-0.0815 0.11695,0 0.20201,0.0815 0.0354,0.039 0.0602,0.0851 0.10632,0.19137 0.27289,0.35794 0.45717,0.45716 1.10217,0.45716 0.645,0 1.10217,-0.45716 0.28351,-0.34022 0.28351,-0.6769 z"
     style="font-style:normal;font-variant:normal;font-weight:normal;font-stretch:normal;font-size:medium;line-height:1.25;font-family:sans-serif;-inkscape-font-specification:'Courier Prime Sans';letter-spacing:0px;word-spacing:0px;fill:#333333;fill-opacity:1;stroke:none;stroke-width:1.64464307"
     id="path1886" />
  <path
     d="m 34.73071,0.8577 q 0,0.1453 -0.10632,0.25162 -0.10277,0.10277 -0.24807,0.10277 -0.14531,0 -0.25162,-0.10277 Q 34.02192,1.003 34.02192,0.8577 q 0,-0.1453 0.10278,-0.24808 0.10631,-0.10632 0.25162,-0.10632 0.1453,0 0.24807,0.10632 0.10632,0.10278 0.10632,0.24808 z M 34.0928,1.99176 q 0,-0.11695 0.0815,-0.19846 0.0851,-0.0851 0.20201,-0.0851 0.11695,0 0.19846,0.0851 0.0851,0.0815 0.0851,0.19846 l 0,3.40219 q 0,0.11696 -0.0851,0.20201 -0.0815,0.0815 -0.19846,0.0815 -0.11695,0 -0.20201,-0.0815 -0.0815,-0.085 -0.0815,-0.20201 z"
     style="font-style:normal;font-variant:normal;font-weight:normal;font-stretch:normal;font-size:medium;line-height:1.25;font-family:sans-serif;-inkscape-font-specification:'Courier Prime Sans';letter-spacing:0px;word-spacing:0px;fill:#333333;fill-opacity:1;stroke:none;stroke-width:1.64464307"
     id="path1888" />
  <path
     d="m 37.495,5.11044 q 0.11695,0 0.19846,0.085 0.085,0.0815 0.085,0.19846 0,0.11696 -0.085,0.20201 -0.0815,0.0815 -0.19846,0.0815 -1.41758,0 -1.41758,-1.41758 l 0,-1.98461 -0.28352,0 q -0.11695,0 -0.20201,-0.0815 -0.0815,-0.0851 -0.0815,-0.20201 0,-0.11695 0.0815,-0.19846 0.0851,-0.0851 0.20201,-0.0851 l 0.28352,0 0,-1.41758 q 0,-0.11695 0.0815,-0.19846 0.0851,-0.0851 0.202,-0.0851 0.11695,0 0.19846,0.0851 0.0851,0.0815 0.0851,0.19846 l 0,1.41758 0.57057,0 q 0.11695,0 0.19847,0.0851 0.085,0.0815 0.085,0.19846 0,0.11695 -0.085,0.20201 -0.0815,0.0815 -0.19847,0.0815 l -0.57057,0 0,1.98461 q 0,0.85055 0.85055,0.85055 z"
     style="font-style:normal;font-variant:normal;font-weight:normal;font-stretch:normal;font-size:medium;line-height:1.25;font-family:sans-serif;-inkscape-font-specification:'Courier Prime Sans';letter-spacing:0px;word-spacing:0px;fill:#333333;fill-opacity:1;stroke:none;stroke-width:1.64464307"
     id="path1890" />
  <path
     d="m 38.34554,0.29067 q 0,-0.11695 0.0815,-0.19846 0.0851,-0.0851 0.20201,-0.0851 0.11695,0 0.19846,0.0851 0.0851,0.0815 0.0851,0.19846 l 0,1.93145 q 0.53159,-0.51387 1.27582,-0.51387 0.76195,0 1.30063,0.54222 0.54222,0.53868 0.54222,1.30063 l 0,1.84285 q 0,0.11696 -0.0851,0.20201 -0.0815,0.0815 -0.19846,0.0815 -0.11696,0 -0.20201,-0.0815 -0.0815,-0.085 -0.0815,-0.20201 l 0,-1.84285 q 0,-0.52805 -0.37566,-0.90016 -0.37211,-0.37566 -0.90016,-0.37566 -0.52805,0 -0.90371,0.37566 -0.37211,0.37211 -0.37211,0.90016 l 0,1.84285 q 0,0.11696 -0.0851,0.20201 -0.0815,0.0815 -0.19846,0.0815 -0.11695,0 -0.20201,-0.0815 -0.0815,-0.085 -0.0815,-0.20201 z"
     style="font-style:normal;font-variant:normal;font-weight:normal;font-stretch:normal;font-size:medium;line-height:1.25;font-family:sans-serif;-inkscape-font-specification:'Courier Prime Sans';letter-spacing:0px;word-spacing:0px;fill:#333333;fill-opacity:1;stroke:none;stroke-width:1.64464307"
     id="path1892" />
  <path
     d="m 46.28399,5.39395 q 0,0.11696 -0.0851,0.20201 -0.0815,0.0815 -0.19847,0.0815 -0.11695,0 -0.202,-0.0815 -0.0815,-0.085 -0.0815,-0.20201 l 0,-0.23035 q -0.53159,0.51387 -1.27582,0.51387 -0.76195,0 -1.30418,-0.53868 -0.53868,-0.54222 -0.53868,-1.30417 l 0,-1.84286 q 0,-0.11695 0.0815,-0.19846 0.0851,-0.0851 0.20201,-0.0851 0.11695,0 0.19846,0.0851 0.085,0.0815 0.085,0.19846 l 0,1.84286 q 0,0.52805 0.37212,0.9037 0.37566,0.37212 0.90371,0.37212 0.52804,0 0.90016,-0.37212 0.37566,-0.37565 0.37566,-0.9037 l 0,-1.84286 q 0,-0.11695 0.0815,-0.19846 0.085,-0.0851 0.202,-0.0851 0.11695,0 0.19847,0.0851 0.0851,0.0815 0.0851,0.19846 z"
     style="font-style:normal;font-variant:normal;font-weight:normal;font-stretch:normal;font-size:medium;line-height:1.25;font-family:sans-serif;-inkscape-font-specification:'Courier Prime Sans';letter-spacing:0px;word-spacing:0px;fill:#333333;fill-opacity:1;stroke:none;stroke-width:1.64464307"
     id="path1894" />
  <path
     d="m 48.83563,5.11044 q 0.5883,0 1.00294,-0.41464 0.41464,-0.41465 0.41464,-1.00294 0,-0.5883 -0.41464,-1.00294 -0.41464,-0.41464 -1.00294,-0.41464 -0.58829,0 -1.00293,0.41464 -0.41465,0.41464 -0.41465,1.00294 0,0.58829 0.41465,1.00294 0.41464,0.41464 1.00293,0.41464 z M 47.41805,2.30363 q 0.007,-0.007 0.0142,-0.0142 0.58121,-0.5812 1.4034,-0.5812 0.8222,0 1.40341,0.5812 0.58121,0.58121 0.58121,1.40341 0,0.8222 -0.58121,1.4034 -0.58121,0.58121 -1.40341,0.58121 -0.82219,0 -1.4034,-0.58121 -0.58121,-0.5812 -0.58121,-1.4034 l 0,-3.40928 q 0,-0.11695 0.0815,-0.19846 Q 47.01764,0 47.13455,0 q 0.11695,0 0.19846,0.0851 0.085,0.0815 0.085,0.19846 z"
     style="font-style:normal;font-variant:normal;font-weight:normal;font-stretch:normal;font-size:medium;line-height:1.25;font-family:sans-serif;-inkscape-font-specification:'Courier Prime Sans';letter-spacing:0px;word-spacing:0px;fill:#333333;fill-opacity:1;stroke:none;stroke-width:1.64464307"
     id="path1896" />
  <path
     d="m 52.23782,5.2522 q 0,0.17719 -0.12403,0.30123 -0.12404,0.12404 -0.30124,0.12404 -0.1772,0 -0.30124,-0.12404 -0.12403,-0.12404 -0.12403,-0.30123 0,-0.1772 0.12403,-0.30124 0.12404,-0.12404 0.30124,-0.12404 0.1772,0 0.30124,0.12404 0.12403,0.12404 0.12403,0.30124 z"
     style="font-style:normal;font-variant:normal;font-weight:normal;font-stretch:normal;font-size:medium;line-height:1.25;font-family:sans-serif;-inkscape-font-specification:'Courier Prime Sans';letter-spacing:0px;word-spacing:0px;fill:#808080;fill-opacity:1;stroke:none;stroke-width:1.64464307"
     id="path1898" />
  <path
     d="m 53.72629,0.8577 q 0,0.1453 -0.10632,0.25162 -0.10278,0.10277 -0.24808,0.10277 -0.1453,0 -0.25162,-0.10277 Q 53.0175,1.003 53.0175,0.8577 q 0,-0.1453 0.10277,-0.24808 0.10632,-0.10632 0.25162,-0.10632 0.1453,0 0.24808,0.10632 0.10632,0.10278 0.10632,0.24808 z m -0.63791,1.13406 q 0,-0.11695 0.0815,-0.19846 0.085,-0.0851 0.202,-0.0851 0.11695,0 0.19846,0.0851 0.0851,0.0815 0.0851,0.19846 l 0,3.40219 q 0,0.11696 -0.0851,0.20201 -0.0815,0.0815 -0.19846,0.0815 -0.11695,0 -0.202,-0.0815 -0.0815,-0.085 -0.0815,-0.20201 z"
     style="font-style:normal;font-variant:normal;font-weight:normal;font-stretch:normal;font-size:medium;line-height:1.25;font-family:sans-serif;-inkscape-font-specification:'Courier Prime Sans';letter-spacing:0px;word-spacing:0px;fill:#333333;fill-opacity:1;stroke:none;stroke-width:1.64464307"
     id="path1900" />
  <path
     d="m 58.47518,3.69286 q 0,0.8222 -0.58121,1.4034 -0.58121,0.58121 -1.4034,0.58121 -0.8222,0 -1.40341,-0.58121 -0.5812,-0.5812 -0.5812,-1.4034 0,-0.8222 0.5812,-1.40341 0.58121,-0.5812 1.40341,-0.5812 0.82219,0 1.4034,0.5812 0.58121,0.58121 0.58121,1.40341 z M 56.49057,2.27528 q -0.5883,0 -1.00294,0.41464 -0.41464,0.41464 -0.41464,1.00294 0,0.58829 0.41464,1.00294 0.41464,0.41464 1.00294,0.41464 0.58829,0 1.00293,-0.41464 0.41465,-0.41465 0.41465,-1.00294 0,-0.5883 -0.41465,-1.00294 -0.41464,-0.41464 -1.00293,-0.41464 z"
     style="font-style:normal;font-variant:normal;font-weight:normal;font-stretch:normal;font-size:medium;line-height:1.25;font-family:sans-serif;-inkscape-font-specification:'Courier Prime Sans';letter-spacing:0px;word-spacing:0px;fill:#333333;fill-opacity:1;stroke:none;stroke-width:1.64464307"
     id="path1902" />
  <path
     id="path1770-2"
     d="m 58.4751,8.20977 c 0,0 0,-0.13229 0,-0.13229 -11.695,0 -46.78,0.13229 -58.475,0.13229 11.695,0 46.78,0.13229 58.475,0.13229 0,0 0,-0.13229 0,-0.13229 z"
     style="fill:#000000;fill-rule:nonzero;stroke:none;stroke-width:0.26458329px;stroke-linecap:butt;stroke-linejoin:miter;stroke-opacity:1" />
</svg>
