<?xml version="1.0" encoding="UTF-8" standalone="no"?>
<svg
   xmlns:dc="http://purl.org/dc/elements/1.1/"
   xmlns:cc="http://creativecommons.org/ns#"
   xmlns:rdf="http://www.w3.org/1999/02/22-rdf-syntax-ns#"
   xmlns:svg="http://www.w3.org/2000/svg"
   xmlns="http://www.w3.org/2000/svg"
   xmlns:xlink="http://www.w3.org/1999/xlink"
   width="32.883926mm"
   height="32.883926mm"
   viewBox="0 0 32.883926 32.883926"
   version="1.1"
   id="svg8">
  <defs
     id="defs2">
    <linearGradient
       id="linearGradient897">
      <stop
         style="stop-color:#ff8282;stop-opacity:1"
         offset="0"
         id="stop893" />
      <stop
         style="stop-color:#ff5f00;stop-opacity:0"
         offset="1"
         id="stop895" />
    </linearGradient>
    <filter
       style="color-interpolation-filters:sRGB"
       id="filter877"
       x="-0.035385899"
       width="1.0707718"
       y="-0.036635794"
       height="1.0732716">
      <feGaussianBlur
         stdDeviation="0.21666787"
         id="feGaussianBlur879" />
    </filter>
    <linearGradient
       gradientTransform="translate(-108.81627,-204.88757)"
       xlink:href="#linearGradient897"
       id="linearGradient899"
       x1="126.61893"
       y1="64.609146"
       x2="156.15222"
       y2="112.24994"
       gradientUnits="userSpaceOnUse" />
    <linearGradient
       xlink:href="#linearGradient897"
       id="linearGradient941"
       gradientUnits="userSpaceOnUse"
       x1="126.61893"
       y1="64.609146"
       x2="156.15222"
       y2="112.24994"
       gradientTransform="translate(-54.768361,-198.71131)" />
    <linearGradient
       xlink:href="#linearGradient897"
       id="linearGradient941-4"
       gradientUnits="userSpaceOnUse"
       x1="126.61893"
       y1="64.609146"
       x2="156.15222"
       y2="112.24994"
       gradientTransform="translate(-59.554949,-165.63435)" />
    <linearGradient
       xlink:href="#linearGradient897"
       id="linearGradient1349"
       gradientUnits="userSpaceOnUse"
       gradientTransform="translate(-131.00699,-301.40963)"
       x1="126.61893"
       y1="64.609146"
       x2="156.15222"
       y2="112.24994" />
    <linearGradient
       xlink:href="#linearGradient897"
       id="linearGradient1388"
       gradientUnits="userSpaceOnUse"
       gradientTransform="translate(-174.77238,-66.14563)"
       x1="126.61893"
       y1="64.609146"
       x2="156.15222"
       y2="112.24994" />
    <linearGradient
       xlink:href="#linearGradient897"
       id="linearGradient1407"
       gradientUnits="userSpaceOnUse"
       gradientTransform="translate(-261.13994,-69.64191)"
       x1="126.61893"
       y1="64.609146"
       x2="156.15222"
       y2="112.24994" />
    <linearGradient
       xlink:href="#linearGradient897"
       id="linearGradient1437"
       gradientUnits="userSpaceOnUse"
       gradientTransform="translate(-292.70095,18.61553)"
       x1="126.61893"
       y1="64.609146"
       x2="156.15222"
       y2="112.24994" />
    <linearGradient
       xlink:href="#linearGradient897"
       id="linearGradient1453"
       gradientUnits="userSpaceOnUse"
       gradientTransform="translate(-108.83699,-56.78026)"
       x1="126.61893"
       y1="64.609146"
       x2="156.15222"
       y2="112.24994" />
    <linearGradient
       xlink:href="#linearGradient897"
       id="linearGradient1453-5"
       gradientUnits="userSpaceOnUse"
       gradientTransform="translate(-108.83699,-56.78026)"
       x1="126.61893"
       y1="64.609146"
       x2="156.15222"
       y2="112.24994" />
  </defs>
  <metadata
     id="metadata5">
    <rdf:RDF>
      <cc:Work
         rdf:about="">
        <dc:format>image/svg+xml</dc:format>
        <dc:type
           rdf:resource="http://purl.org/dc/dcmitype/StillImage" />
        <dc:title></dc:title>
      </cc:Work>
    </rdf:RDF>
  </metadata>
  <g
     id="text1464"
     style="font-style:italic;font-variant:normal;font-weight:normal;font-stretch:normal;font-size:42.73039246px;line-height:1.25;font-family:'Linux Biolinum O';-inkscape-font-specification:'Linux Biolinum O Italic';letter-spacing:0px;word-spacing:0px;fill:#ffaaaa;fill-opacity:0.78167114;stroke:none;stroke-width:0.092592"
     transform="scale(0.99964273,1.0003574)">
    <path
       id="path5112"
       style="font-style:normal;font-variant:normal;font-weight:bold;font-stretch:normal;font-family:'TeX Gyre Adventor';-inkscape-font-specification:'TeX Gyre Adventor';fill:#ffaaaa;fill-opacity:0.78167114;stroke-width:0.092592"
       d="m 28.647363,20.49547 -6.409559,0 c -1.410103,2.17925 -3.033858,3.119319 -5.384029,3.119319 -3.931197,0 -6.8795936,-3.076588 -6.8795936,-7.221436 0,-4.144848 2.8202056,-7.1359758 6.7514016,-7.1359758 2.563824,0 4.3585,1.0682598 5.512221,3.2475098 l 6.409559,0 c -1.837407,-5.4267598 -6.53775,-8.4606177 -11.92178,-8.4606177 -7.0077839,0 -12.4772742,5.4267598 -12.4772742,12.3918137 0,6.879593 5.6404118,12.391814 12.6481962,12.391814 5.512221,0 9.78526,-3.033858 11.750858,-8.332427 z" />
  </g>
  <g
     id="text1468"
     style="font-style:italic;font-variant:normal;font-weight:normal;font-stretch:normal;font-size:11.6357584px;line-height:1.25;font-family:'Linux Biolinum O';-inkscape-font-specification:'Linux Biolinum O Italic';letter-spacing:0px;word-spacing:0px;fill:#ff5555;fill-opacity:0.78167114;stroke:none;stroke-width:0.092592"
     transform="scale(0.99964273,1.0003574)">
    <path
       id="path5115"
       style="font-style:normal;font-variant:normal;font-weight:bold;font-stretch:normal;font-family:'TeX Gyre Adventor';-inkscape-font-specification:'TeX Gyre Adventor';fill:#ff5555;fill-opacity:0.78167114;stroke-width:0.092592"
       d="m 28.647359,17.23894 0,-1.605734 -2.059529,0 0,-2.05953 -1.605735,0 0,2.05953 -2.059529,0 0,1.605734 2.059529,0 0,2.05953 1.605735,0 0,-2.05953 2.059529,0 z" />
  </g>
  <g
     id="text1472"
     style="font-style:italic;font-variant:normal;font-weight:normal;font-stretch:normal;font-size:11.6357584px;line-height:1.25;font-family:'Linux Biolinum O';-inkscape-font-specification:'Linux Biolinum O Italic';letter-spacing:0px;word-spacing:0px;fill:#ff5555;fill-opacity:0.78167114;stroke:none;stroke-width:0.092592"
     transform="scale(0.99964273,1.0003574)">
    <path
       id="path5118"
       style="font-style:normal;font-variant:normal;font-weight:bold;font-stretch:normal;font-family:'TeX Gyre Adventor';-inkscape-font-specification:'TeX Gyre Adventor';fill:#ff5555;fill-opacity:0.78167114;stroke-width:0.092592"
       d="m 22.09346,17.23894 0,-1.605734 -2.05953,0 0,-2.05953 -1.605734,0 0,2.05953 -2.05953,0 0,1.605734 2.05953,0 0,2.05953 1.605734,0 0,-2.05953 2.05953,0 z" />
  </g>
  <path
     id="circle1439"
     d="M 32.883924,16.441959 A 16.441963,16.441963 0 0 1 16.441961,32.883923 16.441963,16.441963 0 0 1 -1.9073486e-6,16.441959 16.441963,16.441963 0 0 1 16.441961,-3.8146973e-6 16.441963,16.441963 0 0 1 32.883924,16.441959 Z"
     style="opacity:1;fill:url(#linearGradient1453-5);fill-opacity:1;stroke:none;stroke-width:0.5;stroke-linecap:butt;stroke-miterlimit:4;stroke-dasharray:none;stroke-dashoffset:0;stroke-opacity:1" />
  <g
     id="text1443"
     style="font-style:italic;font-variant:normal;font-weight:normal;font-stretch:normal;font-size:28.55373573px;line-height:1.25;font-family:'Linux Biolinum O';-inkscape-font-specification:'Linux Biolinum O Italic';letter-spacing:0px;word-spacing:0px;fill:#333333;fill-opacity:0.78436656;stroke:none;stroke-width:0.21232647"
     transform="scale(0.99964272,1.0003574)">
    <path
       id="path5122"
       style="font-style:normal;font-variant:normal;font-weight:normal;font-stretch:normal;font-family:'TeX Gyre Schola';-inkscape-font-specification:'TeX Gyre Schola';fill:#333333;fill-opacity:0.78436656;stroke-width:0.21232647"
       d="M 21.281672,25.00363 13.258073,5.3586595 4.0923234,25.00363 l 17.1893486,0 z m -3.683432,-1.456241 -11.4786014,0 6.0819454,-13.077611 5.396656,13.077611 z" />
  </g>
  <g
     id="g1449"
     transform="matrix(2.6494086,0,0,2.6513031,-398.71408,-191.81704)"
     style="fill:#f9f9f9;fill-opacity:0.9380054;stroke-width:0.37730786">
    <g
       id="text1447"
       style="font-style:italic;font-variant:normal;font-weight:normal;font-stretch:normal;font-size:11.42682648px;line-height:1.25;font-family:'Linux Biolinum O';-inkscape-font-specification:'Linux Biolinum O Italic';letter-spacing:0px;word-spacing:0px;fill:#f9f9f9;fill-opacity:0.9380054;stroke:none;stroke-width:0.09982935">
      <path
         id="path5125"
         style="font-style:italic;font-variant:normal;font-weight:normal;font-stretch:normal;font-size:10.77354813px;font-family:'TeX Gyre Schola';-inkscape-font-specification:'TeX Gyre Schola Italic';fill:#f9f9f9;fill-opacity:0.9380054;stroke-width:0.09982935"
         d="m 161.35947,75.339696 c 0,-0.560225 -0.50636,-0.969619 -1.19587,-0.969619 -0.67873,0 -1.27128,0.377074 -1.69144,1.077354 -0.31244,0.506357 -0.48481,0.958846 -0.75415,1.950013 l -0.9373,0 -0.14006,0.506356 0.95885,0 -0.44172,1.874598 c -0.37707,1.583711 -0.92652,3.210517 -1.59448,4.697267 l 1.18509,-0.193924 c 0.24779,-0.66796 0.87265,-2.725708 1.12045,-3.716874 l 0.66796,-2.661067 1.35746,0 0.15083,-0.506356 -1.38978,0 c 0.25856,-1.023488 0.31243,-1.217411 0.5279,-1.723768 0.25856,-0.635639 0.54945,-0.926525 0.94807,-0.926525 0.14006,0 0.25857,0.07541 0.25857,0.18315 0,0.04309 -0.0108,0.08619 -0.0754,0.193924 -0.0754,0.118509 -0.097,0.204697 -0.097,0.301659 0,0.269339 0.24779,0.48481 0.56022,0.48481 0.33398,0 0.58178,-0.247792 0.58178,-0.570998 z" />
    </g>
  </g>
</svg>
